<svg width="24" height="24" viewBox="0 0 24 24" xmlns="http://www.w3.org/2000/svg">
    <path d="M12.276 2.488a.5.5 0 0 1 .14.14l3.052 4.599 5.317 1.48a.5.5 0 0 1 .257.793l-3.43 4.323.234 5.514a.5.5 0 0 1-.674.49L12 17.9l-5.172 1.927a.5.5 0 0 1-.674-.49l.235-5.514L2.958 9.5a.5.5 0 0 1 .257-.792l5.317-1.481 3.051-4.6a.5.5 0 0 1 .693-.14zm2.251 6.034L12 4.713 9.473 8.522 5.069 9.748l2.842 3.58-.195 4.567L12 16.299l4.283 1.596-.194-4.566 2.841-3.581-4.403-1.226z" fill="#FF6F4F" fill-rule="evenodd"/>
</svg>
